<mxfile host="app.diagrams.net" agent="Mozilla/5.0 (Windows NT 10.0; Win64; x64) AppleWebKit/537.36 (KHTML, like Gecko) Chrome/129.0.0.0 Safari/537.36" version="26.0.10">
  <diagram id="3228e29e-7158-1315-38df-8450db1d8a1d" name="Page-1">
    <mxGraphModel dx="1408" dy="748" grid="1" gridSize="10" guides="1" tooltips="1" connect="1" arrows="1" fold="1" page="1" pageScale="1" pageWidth="1169" pageHeight="827" background="none" math="0" shadow="0">
      <root>
        <mxCell id="0" />
        <mxCell id="1" parent="0" />
        <mxCell id="21541" value="" style="ellipse;whiteSpace=wrap;rotation=-30;fillColor=#F08705;opacity=60;strokeColor=none;html=1;" parent="1" vertex="1">
          <mxGeometry x="320.3411328663887" y="256.6231457523918" width="388.08058261758396" height="156.37594983072486" as="geometry" />
        </mxCell>
        <mxCell id="21542" value="" style="ellipse;whiteSpace=wrap;rotation=135;fillColor=#E85642;opacity=60;strokeColor=none;html=1;" parent="1" vertex="1">
          <mxGeometry x="612.4626626563637" y="256.56188928948563" width="195.8024582681959" height="204.27997321178051" as="geometry" />
        </mxCell>
        <mxCell id="21543" value="" style="ellipse;whiteSpace=wrap;fillColor=#2F5B7C;opacity=60;strokeColor=none;html=1;" parent="1" vertex="1">
          <mxGeometry x="501.37991635376034" y="235.2168645201126" width="370" height="140" as="geometry" />
        </mxCell>
        <mxCell id="21544" value="" style="ellipse;whiteSpace=wrap;fillColor=#12AAB5;opacity=60;strokeColor=none;rotation=15;html=1;" parent="1" vertex="1">
          <mxGeometry x="439.1581665520026" y="371.75258490150304" width="291.24044096383477" height="120" as="geometry" />
        </mxCell>
        <mxCell id="21545" value="" style="ellipse;whiteSpace=wrap;rotation=-40;fillColor=#736CA8;opacity=60;strokeColor=none;html=1;" parent="1" vertex="1">
          <mxGeometry x="488.8443789197289" y="363.3824035900095" width="295.40145289054794" height="107.28417634930992" as="geometry" />
        </mxCell>
        <mxCell id="21546" value="A" style="text;spacingTop=-5;fontStyle=0;fontSize=14;html=1;fontColor=#FFFFFF;" parent="1" vertex="1">
          <mxGeometry x="472.5" y="318.40770608387356" width="30" height="20" as="geometry" />
        </mxCell>
        <mxCell id="21547" value="B" style="text;spacingTop=-5;fontStyle=0;fontSize=14;html=1;fontColor=#FFFFFF;" parent="1" vertex="1">
          <mxGeometry x="750.5" y="401.56034797028497" width="30" height="20" as="geometry" />
        </mxCell>
        <mxCell id="21548" value="C" style="text;spacingTop=-5;fontStyle=0;fontSize=14;html=1;fontColor=#FFFFFF;" parent="1" vertex="1">
          <mxGeometry x="808.2651209245596" y="286.40770608387356" width="30" height="20" as="geometry" />
        </mxCell>
        <mxCell id="21549" value="D" style="text;spacingTop=-5;fontStyle=0;fontSize=14;html=1;fontColor=#FFFFFF;" parent="1" vertex="1">
          <mxGeometry x="674.3799163537603" y="470.6665799393195" width="30" height="20" as="geometry" />
        </mxCell>
        <mxCell id="21550" value="E" style="text;spacingTop=-5;fontStyle=0;fontSize=14;html=1;fontColor=#FFFFFF;" parent="1" vertex="1">
          <mxGeometry x="540.5" y="491.75258490150327" width="30" height="20" as="geometry" />
        </mxCell>
        <mxCell id="21551" value="AC" style="text;spacingTop=-5;fontStyle=0;fontSize=14;html=1;fontColor=#FFFFFF;" parent="1" vertex="1">
          <mxGeometry x="554.7783870339199" y="284.5" width="30" height="20" as="geometry" />
        </mxCell>
        <mxCell id="21552" value="BC" style="text;spacingTop=-5;fontStyle=0;fontSize=14;html=1;fontColor=#FFFFFF;" parent="1" vertex="1">
          <mxGeometry x="765.5" y="316.40770608387356" width="30" height="20" as="geometry" />
        </mxCell>
        <mxCell id="21553" value="ABC" style="text;spacingTop=-5;fontStyle=0;fontSize=14;html=1;fontColor=#FFFFFF;" parent="1" vertex="1">
          <mxGeometry x="628.3799163537603" y="296.40770608387356" width="30" height="20" as="geometry" />
        </mxCell>
        <mxCell id="21554" value="BCE" style="text;spacingTop=-5;fontStyle=0;fontSize=14;html=1;fontColor=#FFFFFF;" parent="1" vertex="1">
          <mxGeometry x="686.3799163537603" y="338.7018758953759" width="30" height="20" as="geometry" />
        </mxCell>
        <mxCell id="21555" value="BE" style="text;spacingTop=-5;fontStyle=0;fontSize=14;html=1;fontColor=#FFFFFF;" parent="1" vertex="1">
          <mxGeometry x="686.3799163537603" y="381.56034797028497" width="30" height="20" as="geometry" />
        </mxCell>
        <mxCell id="21556" value="BD" style="text;spacingTop=-5;fontStyle=0;fontSize=14;html=1;fontColor=#FFFFFF;" parent="1" vertex="1">
          <mxGeometry x="693.3638917904615" y="434.8418625012662" width="30" height="20" as="geometry" />
        </mxCell>
        <mxCell id="21557" value="BDE" style="text;spacingTop=-5;fontStyle=0;fontSize=14;html=1;fontColor=#FFFFFF;" parent="1" vertex="1">
          <mxGeometry x="650.5" y="412.9990955831165" width="30" height="20" as="geometry" />
        </mxCell>
        <mxCell id="21558" value="AD" style="text;spacingTop=-5;fontStyle=0;fontSize=14;html=1;fontColor=#FFFFFF;" parent="1" vertex="1">
          <mxGeometry x="484.38142417518065" y="384.8991419126428" width="30" height="20" as="geometry" />
        </mxCell>
        <mxCell id="21559" value="DE" style="text;spacingTop=-5;fontStyle=0;fontSize=14;html=1;fontColor=#FFFFFF;" parent="1" vertex="1">
          <mxGeometry x="584.7783870339199" y="441.56034797028497" width="30" height="20" as="geometry" />
        </mxCell>
        <mxCell id="21560" value="A" style="ellipse;whiteSpace=wrap;rotation=0;fillColor=#f08705;opacity=60;strokeColor=none;html=1;gradientColor=none;fontSize=15;fontColor=#FFFFFF;" parent="1" vertex="1">
          <mxGeometry x="220.50000000000006" y="253.484724710808" width="39.99999999999994" height="41.86876774444315" as="geometry" />
        </mxCell>
        <mxCell id="21561" value="B" style="ellipse;whiteSpace=wrap;rotation=0;fillColor=#e85642;opacity=60;strokeColor=none;html=1;fontSize=15;fontColor=#FFFFFF;" parent="1" vertex="1">
          <mxGeometry x="220.5" y="303.484724710808" width="40" height="38.09229391612644" as="geometry" />
        </mxCell>
        <mxCell id="21562" value="C" style="ellipse;whiteSpace=wrap;fillColor=#2f5b7c;opacity=60;strokeColor=none;html=1;fontSize=15;fontColor=#FFFFFF;" parent="1" vertex="1">
          <mxGeometry x="220.5" y="356.0612458370708" width="40" height="37.42347887373717" as="geometry" />
        </mxCell>
        <mxCell id="21563" value="D" style="ellipse;whiteSpace=wrap;fillColor=#12aab5;opacity=60;strokeColor=none;html=1;fontSize=15;fontColor=#FFFFFF;" parent="1" vertex="1">
          <mxGeometry x="220.5" y="405.39243079468156" width="40" height="38.09229391612644" as="geometry" />
        </mxCell>
        <mxCell id="21564" value="E" style="ellipse;whiteSpace=wrap;rotation=0;fillColor=#736ca8;opacity=60;strokeColor=none;html=1;fontSize=15;fontColor=#FFFFFF;" parent="1" vertex="1">
          <mxGeometry x="220.50000000000006" y="454.28300853609335" width="39.99999999999994" height="39.20171617471459" as="geometry" />
        </mxCell>
      </root>
    </mxGraphModel>
  </diagram>
</mxfile>
